<svg xmlns="http://www.w3.org/2000/svg" fill="none" viewBox="0 0 20 20">
  <g clip-path="url(#Bye3caJR0sla)" fill="#B4B6B8">
    <path d="M5.2 15.633a.62.62 0 01-.442-.183A7.654 7.654 0 012.5 10c0-2.06.802-3.994 2.258-5.45a.625.625 0 11.884.884A6.41 6.41 0 003.75 10a6.41 6.41 0 001.892 4.566.625.625 0 01-.442 1.067z"/>
    <path d="M3.433 17.4a.62.62 0 01-.441-.183A10.14 10.14 0 010 10a10.14 10.14 0 012.992-7.217.625.625 0 11.884.885A8.896 8.896 0 001.25 10a8.9 8.9 0 002.625 6.333.625.625 0 01-.442 1.067zm13.134 0a.625.625 0 01-.442-1.067 8.897 8.897 0 002.625-6.334 8.9 8.9 0 00-2.625-6.333.625.625 0 11.884-.884A10.149 10.149 0 0120 10a10.14 10.14 0 01-2.992 7.217.62.62 0 01-.441.183z"/>
    <path d="M14.8 15.633a.625.625 0 01-.442-1.068A6.412 6.412 0 0016.25 10a6.41 6.41 0 00-1.893-4.566.625.625 0 11.885-.884A7.654 7.654 0 0117.5 10c0 2.06-.802 3.994-2.258 5.45a.62.62 0 01-.442.183z"/>
    <path d="M8.186 16.667a.626.626 0 01-.607-.776l1.205-4.85H6.458a.625.625 0 01-.51-.985l4.57-6.459a.625.625 0 011.13.44l-.521 4.088h2.415a.624.624 0 01.504.995L8.69 16.412a.624.624 0 01-.504.255z"/>
  </g>
  <defs>
    <clipPath id="Bye3caJR0sla">
      <path fill="#fff" d="M0 0h20v20H0z"/>
    </clipPath>
  </defs>
</svg>
